<?xml version="1.0" encoding="UTF-8"?>
<svg id="Layer_1" data-name="Layer 1" xmlns="http://www.w3.org/2000/svg" viewBox="0 0 275.89 43">
  <defs>
    <style>
      .cls-1 {
        fill: #141414;
      }

      .cls-2 {
        fill: #fff;
      }

      .cls-3 {
        fill-rule: evenodd;
      }

      .cls-3, .cls-4 {
        fill: #313eba;
      }
    </style>
  </defs>
  <g>
    <path class="cls-3" d="M30.51,5.37s-.04,0-.04.02c-.08,2.33-1.31,4.39-3.34,5.56l-4.83,2.79s0,0-.01.01l-2.76,4.79s-.04.02-.05,0l-1.36-2.35s-.03-.02-.04-.01L2.79,25C1.29,25.87.2,27.36.03,29.08c-.21,2.2.77,4.11,2.62,5.18,1.94,1.12,3.89,2.24,5.83,3.37.02.01.04,0,.04-.02.08-2.33,1.31-4.39,3.34-5.56l4.44-2.56s.02-.03.01-.04l-1.36-2.35s0-.04.03-.04h5.53s.01,0,.01,0l15.67-9.05c1.5-.87,2.6-2.36,2.76-4.08.21-2.2-.77-4.11-2.62-5.18l-5.83-3.37Z"/>
    <path class="cls-3" d="M24.98,28.54l-2.7,1.56s0,0-.01.01l-.51.89-2.25,3.9s-.04.02-.05,0l-1.36-2.35s-.03-.02-.04-.01l-4.36,2.52c-.85.49-1.49,1.32-1.63,2.29-.19,1.38.4,2.59,1.55,3.26l2.68,1.54c1.98,1.14,4.41,1.14,6.39,0l2.29-1.32,11.25-6.49c1.5-.87,2.6-2.36,2.76-4.09.21-2.19-.77-4.11-2.62-5.18l-5.83-3.37s-.04,0-.04.02c-.08,2.33-1.31,4.39-3.34,5.56l-2.17,1.25Z"/>
    <path class="cls-4" d="M30.09,5.18s.02-.04,0-.05l-4.7-2.71h0s-.04-.02-.04-.02c-.89-.51-1.78-1.03-2.67-1.54-1.98-1.14-4.41-1.14-6.39,0C11.94,3.37,7.58,5.89,3.21,8.41,1.24,9.55.02,11.66.02,13.94c0,.55,0,1.09,0,1.64h0S.02,20.6.02,20.6v.61s.07,1.48,1.45.63c.9-.56,2.63-1.61,3.72-2.28l11.13-6.42s.02-.03.01-.04l-1.36-2.35s0-.04.03-.04h5.53s.01,0,.01,0l4.83-2.79.03-.02h0s4.71-2.71,4.71-2.71Z"/>
    <g>
      <path class="cls-1" d="M72.13,18.65c.02.66.03,1.34.02,2.04,0,.23,0,.46-.02.69"/>
      <path class="cls-1" d="M59.77,36.22c-5.56,0-10.23-4.55-10.23-11.08V6.72h1.85c2.1,0,3.55,1.21,3.55,3.75v6.33c1.09-1.57,2.94-3.3,5.88-3.3,5.52,0,9.75,4.51,9.75,10.92s-4.19,11.81-10.8,11.81ZM59.77,18.29c-2.74,0-4.79,2.7-4.79,6.08,0,5,2.14,7.05,5.36,7.05,2.7,0,4.63-2.58,4.63-6.08,0-5.28-1.89-7.05-5.2-7.05Z"/>
      <path class="cls-1" d="M85.26,19.25c-.81-.32-1.73-.64-3.14-.64-2.42,0-3.75,1.33-3.75,4.63v12.49h-1.49c-2.42,0-3.95-1.21-3.95-3.47v-9.99c0-4.35,2.3-8.5,8.02-8.5,3.34,0,4.51,1.89,4.51,3.55v1.93h-.2Z"/>
      <path class="cls-1" d="M91.42,12.91c-1.73,0-3.14-1.45-3.14-3.18s1.41-3.14,3.14-3.14,3.18,1.41,3.18,3.14-1.45,3.18-3.18,3.18ZM95.24,35.93c-4.19,0-6.49-2.38-6.49-6.77v-14.71h1.53c2.42,0,3.87,1.29,3.87,4.03v10.15c0,2.18.93,2.86,3.3,2.86h1.01v1.17c0,2.34-.93,3.26-3.22,3.26Z"/>
      <path class="cls-1" d="M107.93,36.22c-3.99,0-6.97-2.05-6.97-4.27v-2.46h.2c1.17,1.09,3.95,2.05,6.53,2.05s3.95-.77,3.95-2.38c0-1.25-.77-1.85-4.51-2.38-4.59-.64-6.81-2.46-6.81-5.76,0-4.07,3.67-7.53,9.23-7.53,4.92,0,6.93,2.54,6.93,4.63v2.05h-.2c-1.13-1.13-3.63-2.01-6.2-2.01-3.3,0-4.35,1.01-4.35,2.42,0,1.09.64,1.53,4.35,2.14,4.51.73,6.93,2.7,6.93,6.16,0,4.59-3.22,7.33-9.07,7.33Z"/>
      <path class="cls-1" d="M125.08,10.31v12.97c2.1-2.74,4.15-5.52,6.65-7.9,1.29-1.21,2.58-1.41,4.31-1.41h3.1v.2c-1.53,1.29-6.57,7.01-8.82,9.87,1.73,2.14,3.42,4.35,5.36,6.33,1.97,1.97,2.86,2.38,4.19,2.82-.56,1.73-1.45,2.66-3.67,2.66-1.21,0-2.62-.56-3.55-1.49-2.78-2.86-5.2-6.08-7.57-9.27v10.6l-1.73.04c-2.5.04-3.71-1.29-3.71-3.83V6.72h1.73c2.62,0,3.71,1.49,3.71,3.59Z"/>
      <path class="cls-1" d="M150.4,13.49c6.53,0,10.27,5.24,10.27,11,0,6.53-3.75,11.72-10.76,11.72-6.53,0-10.27-5.2-10.27-10.96,0-6.53,3.75-11.77,10.76-11.77ZM149.92,18.33c-3.1,0-4.67,2.58-4.67,6.16,0,4.31,1.57,6.89,5.16,6.89,3.14,0,4.67-2.58,4.67-6.12,0-4.35-1.61-6.93-5.16-6.93Z"/>
      <path class="cls-1" d="M180.88,35.73c-2.42,0-3.95-1.53-3.95-3.55v-8.62c0-3.67-1.61-5.28-4.39-5.28-2.34,0-3.95,1.77-3.95,4.88v12.57h-1.61c-2.3,0-3.79-1.53-3.79-3.55v-9.39c0-4.59,3.02-9.31,9.79-9.31,5.12,0,9.35,3.42,9.35,9.59v12.65h-1.45Z"/>
    </g>
  </g>
  <path class="cls-4" d="M275.89,24.75c0,6.3-5.4,11.45-12,11.45h-60.23c-6.6,0-12-5.15-12-11.45s5.4-11.45,12-11.45h60.23c6.6,0,12,5.15,12,11.45Z"/>
  <g>
    <path class="cls-2" d="M203.63,19.35h1.7l4.4,11.58h-1.54l-1.22-3.13h-5.04l-1.22,3.13h-1.49l4.42-11.58ZM206.54,26.49l-2.1-5.57-2.08,5.57h4.19Z"/>
    <path class="cls-2" d="M210.31,26.48v-7.13h1.44v7.21c0,1.95,1.01,3.14,3.01,3.14s3.04-1.19,3.04-3.14v-7.21h1.44v7.13c0,2.86-1.59,4.55-4.48,4.55s-4.45-1.69-4.45-4.55Z"/>
    <path class="cls-2" d="M220.87,25.14c0-3.51,2.17-5.89,5.52-5.89,2.56,0,4.43,1.49,4.86,3.89h-1.52c-.45-1.6-1.67-2.56-3.41-2.56-2.43,0-3.99,1.89-3.99,4.57s1.49,4.57,3.92,4.57c1.79,0,3.03-.94,3.46-2.56h1.52c-.43,2.4-2.35,3.89-4.96,3.89-3.32,0-5.41-2.35-5.41-5.89Z"/>
    <path class="cls-2" d="M235.52,20.67h-3.75v-1.32h8.95v1.32h-3.75v10.25h-1.44v-10.25Z"/>
    <path class="cls-2" d="M242.15,19.35h1.44v11.58h-1.44v-11.58Z"/>
    <path class="cls-2" d="M245.29,25.14c0-3.41,2.27-5.89,5.52-5.89s5.52,2.48,5.52,5.89-2.27,5.89-5.52,5.89-5.52-2.48-5.52-5.89ZM254.87,25.14c0-2.66-1.64-4.57-4.05-4.57s-4.05,1.9-4.05,4.57,1.64,4.57,4.05,4.57,4.05-1.9,4.05-4.57Z"/>
    <path class="cls-2" d="M258.05,19.35h1.32l6.22,8.93v-8.93h1.41v11.58h-1.32l-6.22-8.93v8.93h-1.41v-11.58Z"/>
  </g>
</svg>